<svg height="512pt" viewBox="0 -77 512 512" width="512pt" xmlns="http://www.w3.org/2000/svg"><path d="m392.53125 349.867188h93.867188c9.425781 0 17.070312-7.640626 17.070312-17.066407v-307.199219c0-9.425781-7.644531-17.070312-17.070312-17.070312h-460.796876c-9.425781 0-17.070312 7.644531-17.070312 17.070312v307.199219c0 9.425781 7.644531 17.066407 17.070312 17.066407zm0 0" fill="#cfd8dc"/><path d="m372.667969 349.867188h88.984375c4.414062-.113282 8.605468-1.972657 11.644531-5.175782 3.042969-3.199218 4.683594-7.476562 4.570313-11.890625v-307.199219c.113281-4.414062-1.53125-8.695312-4.570313-11.894531s-7.230469-5.0625-11.644531-5.175781h-436.90625c-4.414063.113281-8.601563 1.976562-11.640625 5.175781-3.042969 3.199219-4.6875 7.480469-4.570313 11.894531v307.199219c-.117187 4.414063 1.527344 8.691407 4.570313 11.890625 3.039062 3.203125 7.226562 5.0625 11.640625 5.175782zm0 0" fill="#f5f5f5"/><path d="m323.839844 162.730469c-4.132813-36.859375-36.832032-63.742188-73.792969-60.679688s-64.785156 34.96875-62.792969 72.003907c1.988282 37.035156 33.074219 65.769531 70.152344 64.855468 37.074219-.917968 66.703125-31.15625 66.859375-68.242187 0-2.648438-.167969-5.292969-.425781-7.9375zm0 0" fill="#f44335"/><path d="m324.265625 170.667969c0 37.703125-30.5625 68.265625-68.265625 68.265625s-68.265625-30.5625-68.265625-68.265625l3.582031-3.585938c8.097656-8.109375 19.089844-12.671875 30.550782-12.671875 11.460937 0 22.453124 4.5625 30.546874 12.671875l3.585938 3.585938c8.691406 8.664062 20.652344 13.234375 32.90625 12.566406s23.652344-6.507813 31.351562-16.066406l3.582032-4.4375c.257812 2.644531.425781 5.289062.425781 7.9375zm0 0" fill="#2296f3"/><g fill="#2c2f38"><path d="m67.210938 116.25c-3.082032-.003906-5.925782-1.667969-7.433594-4.355469-1.507813-2.691406-1.449219-5.984375.152344-8.613281l26.648437-43.726562c2.457031-4.023438 7.710937-5.296876 11.734375-2.839844 4.023438 2.453125 5.296875 7.707031 2.84375 11.730468l-26.652344 43.714844c-1.550781 2.542969-4.316406 4.09375-7.292968 4.089844zm0 0"/><path d="m89.0625 129.578125c-3.085938 0-5.929688-1.667969-7.4375-4.359375-1.511719-2.691406-1.449219-5.984375.15625-8.617188l26.660156-43.71875c2.453125-4.023437 7.703125-5.296874 11.730469-2.84375 4.023437 2.453126 5.296875 7.703126 2.84375 11.726563l-26.65625 43.71875c-1.550781 2.542969-4.316406 4.097656-7.296875 4.09375zm0 0"/><path d="m110.933594 142.898438c-3.082032-.003907-5.921875-1.667969-7.433594-4.355469-1.507812-2.6875-1.449219-5.980469.152344-8.613281l26.644531-43.742188c2.449219-4.027344 7.703125-5.300781 11.726563-2.847656 4.027343 2.453125 5.300781 7.707031 2.847656 11.730468l-26.652344 43.714844c-1.542969 2.550782-4.304688 4.109375-7.285156 4.113282zm0 0"/><path d="m93.867188 302.933594c-2.980469.003906-5.746094-1.546875-7.296876-4.085938l-26.640624-43.699218c-1.585938-2.605469-1.664063-5.859376-.203126-8.535157 1.460938-2.675781 4.238282-4.367187 7.289063-4.441406 3.046875-.070313 5.902344 1.488281 7.488281 4.089844l26.648438 43.71875c1.597656 2.632812 1.648437 5.917969.140625 8.601562-1.511719 2.683594-4.347657 4.347657-7.425781 4.351563zm0 0"/><path d="m115.730469 289.605469c-2.976563 0-5.738281-1.550781-7.289063-4.089844l-26.65625-43.714844c-1.761718-2.609375-1.945312-5.976562-.476562-8.757812 1.472656-2.785157 4.351562-4.53125 7.5-4.550781 3.148437-.015626 6.050781 1.699218 7.550781 4.46875l26.65625 43.714843c2.453125 4.023438 1.175781 9.273438-2.847656 11.726563-1.339844.800781-2.878907 1.21875-4.4375 1.203125zm0 0"/><path d="m137.589844 276.285156c-2.980469 0-5.746094-1.550781-7.292969-4.097656l-26.652344-43.714844c-2.453125-4.027344-1.179687-9.277344 2.847657-11.730468 4.023437-2.453126 9.273437-1.179688 11.726562 2.847656l26.652344 43.714844c1.605468 2.632812 1.667968 5.929687.15625 8.621093-1.507813 2.691407-4.351563 4.355469-7.4375 4.359375zm0 0"/><path d="m444.792969 116.25c-2.980469.003906-5.746094-1.546875-7.296875-4.085938l-26.648438-43.71875c-1.589844-2.601562-1.667968-5.855468-.207031-8.53125 1.460937-2.679687 4.238281-4.375 7.285156-4.445312 3.046875-.074219 5.90625 1.484375 7.496094 4.085938l26.648437 43.699218c1.601563 2.632813 1.660157 5.925782.152344 8.613282-1.507812 2.6875-4.347656 4.355468-7.433594 4.355468v.027344zm0 0"/><path d="m422.929688 129.578125c-2.976563 0-5.738282-1.550781-7.289063-4.09375l-26.65625-43.71875c-2.453125-4.023437-1.179687-9.273437 2.84375-11.726563 4.027344-2.453124 9.277344-1.179687 11.730469 2.84375l26.660156 43.71875c1.605469 2.632813 1.667969 5.929688.15625 8.621094s-4.359375 4.355469-7.445312 4.355469zm0 0"/><path d="m401.066406 142.898438c-2.976562.003906-5.742187-1.542969-7.296875-4.085938l-26.648437-43.714844c-2.460938-4.027344-1.191406-9.289062 2.835937-11.746094 4.027344-2.460937 9.285157-1.191406 11.746094 2.835938l26.652344 43.714844c1.617187 2.636718 1.679687 5.941406.167969 8.636718-1.511719 2.695313-4.363282 4.363282-7.457032 4.359376zm0 0"/><path d="m418.132812 302.933594c-3.085937-.003906-5.929687-1.667969-7.4375-4.359375-1.507812-2.691407-1.449218-5.988281.160157-8.621094l26.648437-43.714844c2.460938-4.023437 7.714844-5.289062 11.738282-2.828125 4.023437 2.457032 5.289062 7.714844 2.828124 11.738282l-26.648437 43.722656c-1.558594 2.53125-4.316406 4.070312-7.289063 4.0625zm0 0"/><path d="m396.261719 289.605469c-1.5625.003906-3.097657-.429688-4.429688-1.246094-4.023437-2.453125-5.300781-7.703125-2.847656-11.726563l26.65625-43.671874c1.585937-2.605469 4.441406-4.164063 7.492187-4.09375 3.046876.074218 5.824219 1.769531 7.285157 4.445312 1.460937 2.675781 1.382812 5.925781-.203125 8.53125l-26.65625 43.714844c-1.5625 2.527344-4.324219 4.058594-7.296875 4.046875zm0 0"/><path d="m374.410156 276.285156c-3.085937-.003906-5.929687-1.667968-7.4375-4.359375-1.511718-2.691406-1.449218-5.988281.15625-8.621093l26.652344-43.714844c2.453125-4.027344 7.703125-5.300782 11.726562-2.847656 4.027344 2.453124 5.300782 7.703124 2.847657 11.730468l-26.652344 43.742188c-1.554687 2.535156-4.320313 4.078125-7.292969 4.070312zm0 0"/></g><path d="m486.398438 0h-460.796876c-14.140624 0-25.601562 11.460938-25.601562 25.601562v307.199219c0 14.136719 11.460938 25.597657 25.601562 25.597657h460.796876c14.140624 0 25.601562-11.460938 25.601562-25.597657v-307.199219c0-14.140624-11.460938-25.601562-25.601562-25.601562zm8.535156 332.800781c0 4.710938-3.820313 8.53125-8.535156 8.53125h-460.796876c-4.714843 0-8.535156-3.820312-8.535156-8.53125v-307.199219c0-4.714843 3.820313-8.535156 8.535156-8.535156h460.796876c4.714843 0 8.535156 3.820313 8.535156 8.535156zm0 0"/><path d="m332.167969 161.324219c-5.300781-40.910157-42.136719-70.207031-83.1875-66.164063-41.050781 4.042969-71.464844 39.964844-68.683594 81.121094 2.78125 41.152344 37.753906 72.65625 78.972656 71.140625 41.222657-1.519531 73.78125-35.507813 73.53125-76.753906-.007812-2.851563-.175781-5.703125-.503906-8.535157-.027344-.273437-.070313-.542968-.128906-.808593zm-76.167969-50.390625c28.988281.046875 53.761719 20.882812 58.777344 49.433594l-1.183594 1.46875c-6.183594 7.664062-15.328125 12.34375-25.15625 12.878906-9.832031.53125-19.429688-3.128906-26.402344-10.082032l-3.585937-3.582031c-15.539063-15.457031-39.144531-19.417969-58.878907-9.882812 8.320313-24.058594 30.96875-40.207031 56.429688-40.234375zm0 119.464844c-31.652344-.039063-57.78125-24.765626-59.5625-56.371094l.914062-.910156c13.546876-13.519532 35.480469-13.519532 49.03125 0l3.585938 3.582031c17.128906 17.066406 43.773438 20.039062 64.246094 7.167969-6.1875 27.183593-30.335938 46.488281-58.214844 46.53125zm0 0"/><path d="m62.769531 115.003906c1.933594 1.179688 4.257813 1.542969 6.457031 1.011719 2.199219-.535156 4.097657-1.917969 5.277344-3.851563l26.648438-43.71875c2.457031-4.023437 1.183594-9.277343-2.839844-11.730468-4.027344-2.457032-9.277344-1.183594-11.734375 2.839844l-26.648437 43.699218c-1.1875 1.933594-1.550782 4.261719-1.019532 6.464844.535156 2.203125 1.921875 4.105469 3.859375 5.285156zm0 0"/><path d="m84.632812 128.332031c4.027344 2.449219 9.273438 1.175781 11.726563-2.847656l26.65625-43.71875c2.453125-4.023437 1.179687-9.273437-2.84375-11.726563-4.027344-2.453124-9.277344-1.179687-11.730469 2.84375l-26.65625 43.71875c-1.179687 1.933594-1.542968 4.253907-1.007812 6.457032.535156 2.199218 1.921875 4.097656 3.855468 5.273437zm0 0"/><path d="m142.027344 83.363281c-1.933594-1.179687-4.253906-1.542969-6.457032-1.007812-2.199218.535156-4.097656 1.921875-5.273437 3.855469l-26.652344 43.71875c-2.453125 4.023437-1.175781 9.273437 2.847657 11.726562 4.023437 2.453125 9.277343 1.179688 11.730468-2.84375l26.648438-43.71875c1.179687-1.933594 1.542968-4.253906 1.011718-6.453125-.535156-2.203125-1.921874-4.101563-3.855468-5.277344zm0 0"/><path d="m74.503906 246.238281c-2.457031-4.023437-7.714844-5.292969-11.742187-2.832031-4.023438 2.457031-5.292969 7.714844-2.832031 11.742188l26.648437 43.722656c2.457031 4.027344 7.710937 5.296875 11.734375 2.84375 4.027344-2.457032 5.296875-7.710938 2.84375-11.734375zm0 0"/><path d="m96.359375 232.960938c-1.589844-2.605469-4.445313-4.164063-7.492187-4.089844-3.046876.070312-5.824219 1.765625-7.285157 4.441406-1.460937 2.675781-1.386719 5.925781.203125 8.53125l26.65625 43.714844c2.453125 4.027344 7.703125 5.300781 11.730469 2.847656 4.023437-2.453125 5.296875-7.703125 2.84375-11.730469zm0 0"/><path d="m118.222656 219.589844c-2.453125-4.027344-7.707031-5.300782-11.730468-2.847656-4.023438 2.453124-5.300782 7.703124-2.847657 11.730468l26.652344 43.742188c1.585937 2.601562 4.441406 4.160156 7.488281 4.089844 3.050782-.074219 5.828125-1.769532 7.289063-4.445313 1.460937-2.675781 1.382812-5.925781-.203125-8.53125zm0 0"/><path d="m425.421875 59.554688c-1.589844-2.605469-4.445313-4.164063-7.496094-4.089844-3.046875.074218-5.824219 1.769531-7.285156 4.445312-1.460937 2.679688-1.382813 5.933594.207031 8.535156l26.648438 43.714844c2.460937 4.027344 7.71875 5.292969 11.742187 2.835938 4.027344-2.460938 5.292969-7.71875 2.832031-11.742188zm0 0"/><path d="m415.640625 125.484375c2.453125 4.023437 7.707031 5.296875 11.730469 2.84375 4.023437-2.453125 5.300781-7.703125 2.847656-11.726563l-26.660156-43.71875c-1.585938-2.601562-4.441406-4.160156-7.488282-4.089843-3.050781.074219-5.828124 1.765625-7.289062 4.441406s-1.382812 5.929687.203125 8.535156zm0 0"/><path d="m393.777344 138.8125c2.453125 4.023438 7.707031 5.296875 11.730468 2.84375 4.023438-2.453125 5.300782-7.703125 2.847657-11.726562l-26.652344-43.742188c-1.585937-2.605469-4.441406-4.164062-7.488281-4.089844-3.050782.070313-5.828125 1.765625-7.289063 4.441406-1.460937 2.675782-1.382812 5.929688.203125 8.53125zm0 0"/><path d="m449.230469 243.394531c-1.933594-1.179687-4.257813-1.542969-6.457031-1.007812-2.203126.53125-4.097657 1.917969-5.277344 3.851562l-26.652344 43.714844c-2.453125 4.023437-1.183594 9.277344 2.84375 11.734375 4.023438 2.453125 9.277344 1.179688 11.734375-2.84375l26.648437-43.699219c1.183594-1.933593 1.550782-4.257812 1.019532-6.464843-.535156-2.203126-1.921875-4.105469-3.859375-5.285157zm0 0"/><path d="m427.367188 230.066406c-4.027344-2.449218-9.273438-1.171875-11.726563 2.851563l-26.65625 43.714843c-2.453125 4.023438-1.175781 9.273438 2.847656 11.726563 1.332031.816406 2.867188 1.25 4.429688 1.246094 2.980469.003906 5.746093-1.546875 7.296875-4.089844l26.65625-43.714844c1.179687-1.933593 1.542968-4.257812 1.007812-6.457031-.535156-2.203125-1.921875-4.101562-3.855468-5.277344zm0 0"/><path d="m405.511719 216.746094c-1.929688-1.179688-4.253907-1.542969-6.453125-1.011719-2.203125.535156-4.101563 1.921875-5.28125 3.855469l-26.648438 43.714844c-2.460937 4.023437-1.191406 9.28125 2.832032 11.742187 4.027343 2.460937 9.28125 1.191406 11.742187-2.832031l26.652344-43.71875c1.183593-1.933594 1.550781-4.257813 1.015625-6.464844-.53125-2.203125-1.921875-4.105469-3.859375-5.285156zm0 0"/></svg>