<?xml version="1.0" encoding="UTF-8"?>
<svg xmlns="http://www.w3.org/2000/svg" height="512" viewBox="-34 0 409 409.58985" width="512" class="">
  <g>
    <g fill="#212121">
      <path d="m192.136719 322.511719s24.628906-109.601563-79.320313-2.484375c-5.722656 5.898437-1.632812 15.777344 6.585938 15.777344 21.460937 0 42.78125-3.421876 63.164062-10.140626zm0 0" data-original="#212121" class=""></path>
      <path d="m178.230469 394.109375c-7.546875 0-13.625-6.359375-13.625-13.90625 0-30.160156 54.734375-46.519531 78.265625-52.15625 1.054687-.253906 2.121094-.375 3.1875-.375 30.117187 0 54.613281-24.496094 54.613281-54.613281 0-14.308594-5.496094-27.828125-15.464844-38.078125l-187.75-212.296875c-5-5.640625-4.464843-14.265625 1.1875-19.265625 5.625-4.972657 14.28125-4.46875 19.265625 1.183593l187.308594 211.8125c14.519531 14.894532 22.757812 35.1875 22.757812 56.640626 0 44.601562-35.824218 80.988281-80.199218 81.90625-26.636719 6.617187-53.574219 18.976562-55.933594 25.75 0 7.546874-6.078125 13.398437-13.613281 13.398437zm0 0" data-original="#212121" class=""></path>
      <path d="m89.898438 382.28125c-34.386719 0-62.375-27.984375-62.375-62.371094 0-15.828125 5.945312-30.921875 16.734374-42.507812 5.132813-5.507813 13.773438-5.824219 19.292969-.679688 5.519531 5.136719 5.828125 13.773438.679688 19.296875-6.050781 6.503907-9.398438 15-9.398438 23.890625 0 19.335938 15.734375 35.066406 35.066407 35.066406 4.746093 0 9.332031-.917968 13.640624-2.746093 6.890626-2.917969 14.960938.296875 17.890626 7.253906 2.933593 6.949219-.308594 14.960937-7.253907 17.894531-7.691406 3.25-15.851562 4.902344-24.277343 4.902344zm0 0" data-original="#212121" class=""></path>
    </g>
    <path d="m13.953125 409.589844c-3.136719 0-6.28125-1.066406-8.855469-3.253906-5.746094-4.890626-6.429687-13.519532-1.546875-19.25l314.027344-368.640626c4.90625-5.746093 13.519531-6.429687 19.253906-1.546874 5.746094 4.890624 6.425781 13.519531 1.542969 19.253906l-314.023438 368.636718c-2.707031 3.175782-6.546874 4.800782-10.398437 4.800782zm0 0" fill="#ff451a" data-original="#FF451A" class="active-path" style="fill:#000000" data-old_color="#ff451a"></path>
  </g>
</svg>
